<mxfile host="app.diagrams.net" agent="Mozilla/5.0 (X11; Linux x86_64; rv:140.0) Gecko/20100101 Firefox/140.0" version="27.2.0">
  <diagram name="Page-1" id="NJyVf25MFpkNPFM44GDy">
    <mxGraphModel dx="1201" dy="825" grid="1" gridSize="10" guides="1" tooltips="1" connect="1" arrows="1" fold="1" page="1" pageScale="1" pageWidth="1169" pageHeight="827" math="0" shadow="0">
      <root>
        <mxCell id="0" />
        <mxCell id="1" parent="0" />
        <mxCell id="iO7sLULOvj2tsXonKfGh-16" style="edgeStyle=orthogonalEdgeStyle;rounded=0;orthogonalLoop=1;jettySize=auto;html=1;exitX=0.5;exitY=1;exitDx=0;exitDy=0;entryX=0.5;entryY=0;entryDx=0;entryDy=0;" edge="1" parent="1" source="iO7sLULOvj2tsXonKfGh-1" target="iO7sLULOvj2tsXonKfGh-5">
          <mxGeometry relative="1" as="geometry" />
        </mxCell>
        <mxCell id="iO7sLULOvj2tsXonKfGh-1" value="&lt;font style=&quot;font-size: 16px;&quot;&gt;Start&lt;/font&gt;" style="rounded=1;whiteSpace=wrap;html=1;" vertex="1" parent="1">
          <mxGeometry x="667" y="160" width="80" height="40" as="geometry" />
        </mxCell>
        <mxCell id="iO7sLULOvj2tsXonKfGh-2" value="&lt;div&gt;&lt;font style=&quot;font-size: 18px;&quot;&gt;void read(int x) {&lt;/font&gt;&lt;/div&gt;&lt;div&gt;&lt;font style=&quot;font-size: 18px;&quot;&gt;&amp;nbsp; &amp;nbsp; if (x &amp;lt; 0) {&lt;/font&gt;&lt;/div&gt;&lt;div&gt;&lt;font style=&quot;font-size: 18px;&quot;&gt;&amp;nbsp; &amp;nbsp; &amp;nbsp; &amp;nbsp; if (x &amp;lt; -3) {&lt;/font&gt;&lt;/div&gt;&lt;div&gt;&lt;font style=&quot;font-size: 18px;&quot;&gt;&amp;nbsp; &amp;nbsp; &amp;nbsp; &amp;nbsp; &amp;nbsp; &amp;nbsp; foo(x);&lt;/font&gt;&lt;/div&gt;&lt;div&gt;&lt;font style=&quot;font-size: 18px;&quot;&gt;&amp;nbsp; &amp;nbsp; &amp;nbsp; &amp;nbsp; } else {&lt;/font&gt;&lt;/div&gt;&lt;div&gt;&lt;font style=&quot;font-size: 18px;&quot;&gt;&amp;nbsp; &amp;nbsp; &amp;nbsp; &amp;nbsp; &amp;nbsp; &amp;nbsp; ...&lt;/font&gt;&lt;/div&gt;&lt;div&gt;&lt;font style=&quot;font-size: 18px;&quot;&gt;&amp;nbsp; &amp;nbsp; &amp;nbsp; &amp;nbsp; }&lt;/font&gt;&lt;/div&gt;&lt;div&gt;&lt;font style=&quot;font-size: 18px;&quot;&gt;&amp;nbsp; &amp;nbsp; } else {&lt;/font&gt;&lt;/div&gt;&lt;div&gt;&lt;font style=&quot;font-size: 18px;&quot;&gt;&amp;nbsp; &amp;nbsp; &amp;nbsp; &amp;nbsp; if (x &amp;gt; 5) {&lt;/font&gt;&lt;/div&gt;&lt;div&gt;&lt;font style=&quot;font-size: 18px;&quot;&gt;&amp;nbsp; &amp;nbsp; &amp;nbsp; &amp;nbsp; &amp;nbsp; &amp;nbsp; bar(x);&lt;/font&gt;&lt;/div&gt;&lt;div&gt;&lt;font style=&quot;font-size: 18px;&quot;&gt;&amp;nbsp; &amp;nbsp; &amp;nbsp; &amp;nbsp; } else {&lt;/font&gt;&lt;/div&gt;&lt;div&gt;&lt;font style=&quot;font-size: 18px;&quot;&gt;&amp;nbsp; &amp;nbsp; &amp;nbsp; &amp;nbsp; &amp;nbsp; &amp;nbsp; ...&lt;/font&gt;&lt;/div&gt;&lt;div&gt;&lt;font style=&quot;font-size: 18px;&quot;&gt;&amp;nbsp; &amp;nbsp; ...&lt;/font&gt;&lt;/div&gt;&lt;div&gt;&lt;font style=&quot;font-size: 18px;&quot;&gt;}&lt;/font&gt;&lt;/div&gt;" style="text;html=1;align=left;verticalAlign=middle;whiteSpace=wrap;rounded=0;" vertex="1" parent="1">
          <mxGeometry x="322" y="160" width="180" height="340" as="geometry" />
        </mxCell>
        <mxCell id="iO7sLULOvj2tsXonKfGh-15" style="edgeStyle=orthogonalEdgeStyle;rounded=0;orthogonalLoop=1;jettySize=auto;html=1;exitX=0.5;exitY=1;exitDx=0;exitDy=0;entryX=0.5;entryY=0;entryDx=0;entryDy=0;" edge="1" parent="1" source="iO7sLULOvj2tsXonKfGh-3" target="iO7sLULOvj2tsXonKfGh-12">
          <mxGeometry relative="1" as="geometry" />
        </mxCell>
        <mxCell id="iO7sLULOvj2tsXonKfGh-3" value="&lt;font style=&quot;font-size: 16px;&quot;&gt;Path A&lt;/font&gt;" style="rounded=1;whiteSpace=wrap;html=1;" vertex="1" parent="1">
          <mxGeometry x="577" y="264" width="80" height="40" as="geometry" />
        </mxCell>
        <mxCell id="iO7sLULOvj2tsXonKfGh-17" style="edgeStyle=orthogonalEdgeStyle;rounded=0;orthogonalLoop=1;jettySize=auto;html=1;exitX=0.5;exitY=1;exitDx=0;exitDy=0;entryX=0.5;entryY=0;entryDx=0;entryDy=0;" edge="1" parent="1" source="iO7sLULOvj2tsXonKfGh-4" target="iO7sLULOvj2tsXonKfGh-14">
          <mxGeometry relative="1" as="geometry" />
        </mxCell>
        <mxCell id="iO7sLULOvj2tsXonKfGh-4" value="&lt;font style=&quot;font-size: 16px;&quot;&gt;Path B&lt;/font&gt;" style="rounded=1;whiteSpace=wrap;html=1;" vertex="1" parent="1">
          <mxGeometry x="767" y="264" width="80" height="40" as="geometry" />
        </mxCell>
        <mxCell id="iO7sLULOvj2tsXonKfGh-7" style="edgeStyle=orthogonalEdgeStyle;rounded=0;orthogonalLoop=1;jettySize=auto;html=1;entryX=0.5;entryY=0;entryDx=0;entryDy=0;exitX=0;exitY=0;exitDx=0;exitDy=0;" edge="1" parent="1" source="iO7sLULOvj2tsXonKfGh-5" target="iO7sLULOvj2tsXonKfGh-3">
          <mxGeometry relative="1" as="geometry" />
        </mxCell>
        <mxCell id="iO7sLULOvj2tsXonKfGh-8" style="edgeStyle=orthogonalEdgeStyle;rounded=0;orthogonalLoop=1;jettySize=auto;html=1;exitX=1;exitY=0;exitDx=0;exitDy=0;entryX=0.5;entryY=0;entryDx=0;entryDy=0;" edge="1" parent="1" source="iO7sLULOvj2tsXonKfGh-5" target="iO7sLULOvj2tsXonKfGh-4">
          <mxGeometry relative="1" as="geometry" />
        </mxCell>
        <mxCell id="iO7sLULOvj2tsXonKfGh-5" value="&lt;font style=&quot;font-size: 16px;&quot;&gt;x &amp;lt; 0&lt;/font&gt;" style="rhombus;whiteSpace=wrap;html=1;" vertex="1" parent="1">
          <mxGeometry x="667" y="220" width="80" height="60" as="geometry" />
        </mxCell>
        <mxCell id="iO7sLULOvj2tsXonKfGh-9" value="&lt;font style=&quot;font-size: 16px;&quot;&gt;True&lt;/font&gt;" style="text;html=1;align=center;verticalAlign=middle;whiteSpace=wrap;rounded=0;" vertex="1" parent="1">
          <mxGeometry x="622" y="210" width="60" height="30" as="geometry" />
        </mxCell>
        <mxCell id="iO7sLULOvj2tsXonKfGh-10" value="&lt;font style=&quot;font-size: 16px;&quot;&gt;False&lt;/font&gt;" style="text;html=1;align=center;verticalAlign=middle;whiteSpace=wrap;rounded=0;" vertex="1" parent="1">
          <mxGeometry x="742" y="210" width="60" height="30" as="geometry" />
        </mxCell>
        <mxCell id="iO7sLULOvj2tsXonKfGh-12" value="&lt;font style=&quot;font-size: 16px;&quot;&gt;x &amp;lt; -3&lt;/font&gt;" style="rhombus;whiteSpace=wrap;html=1;" vertex="1" parent="1">
          <mxGeometry x="577" y="320" width="80" height="60" as="geometry" />
        </mxCell>
        <mxCell id="iO7sLULOvj2tsXonKfGh-14" value="&lt;font style=&quot;font-size: 16px;&quot;&gt;x &amp;lt; -3&lt;/font&gt;" style="rhombus;whiteSpace=wrap;html=1;" vertex="1" parent="1">
          <mxGeometry x="767" y="320" width="80" height="60" as="geometry" />
        </mxCell>
        <mxCell id="iO7sLULOvj2tsXonKfGh-18" value="" style="endArrow=none;html=1;rounded=0;exitX=0.5;exitY=1;exitDx=0;exitDy=0;" edge="1" parent="1" source="iO7sLULOvj2tsXonKfGh-12">
          <mxGeometry width="50" height="50" relative="1" as="geometry">
            <mxPoint x="582" y="350" as="sourcePoint" />
            <mxPoint x="582" y="410" as="targetPoint" />
          </mxGeometry>
        </mxCell>
        <mxCell id="iO7sLULOvj2tsXonKfGh-19" value="" style="endArrow=none;html=1;rounded=0;exitX=0.5;exitY=1;exitDx=0;exitDy=0;" edge="1" parent="1" source="iO7sLULOvj2tsXonKfGh-12">
          <mxGeometry width="50" height="50" relative="1" as="geometry">
            <mxPoint x="677" y="410" as="sourcePoint" />
            <mxPoint x="652" y="410" as="targetPoint" />
          </mxGeometry>
        </mxCell>
        <mxCell id="iO7sLULOvj2tsXonKfGh-21" value="" style="endArrow=none;dashed=1;html=1;rounded=0;" edge="1" parent="1">
          <mxGeometry width="50" height="50" relative="1" as="geometry">
            <mxPoint x="552" y="450" as="sourcePoint" />
            <mxPoint x="582" y="410" as="targetPoint" />
          </mxGeometry>
        </mxCell>
        <mxCell id="iO7sLULOvj2tsXonKfGh-22" value="" style="endArrow=none;dashed=1;html=1;rounded=0;" edge="1" parent="1">
          <mxGeometry width="50" height="50" relative="1" as="geometry">
            <mxPoint x="612" y="450" as="sourcePoint" />
            <mxPoint x="582" y="410" as="targetPoint" />
          </mxGeometry>
        </mxCell>
        <mxCell id="iO7sLULOvj2tsXonKfGh-23" value="" style="endArrow=none;html=1;rounded=0;" edge="1" parent="1">
          <mxGeometry width="50" height="50" relative="1" as="geometry">
            <mxPoint x="680" y="450" as="sourcePoint" />
            <mxPoint x="652" y="410" as="targetPoint" />
          </mxGeometry>
        </mxCell>
        <mxCell id="iO7sLULOvj2tsXonKfGh-24" value="" style="endArrow=none;html=1;rounded=0;exitX=0.5;exitY=1;exitDx=0;exitDy=0;" edge="1" parent="1">
          <mxGeometry width="50" height="50" relative="1" as="geometry">
            <mxPoint x="807" y="380" as="sourcePoint" />
            <mxPoint x="772" y="410" as="targetPoint" />
          </mxGeometry>
        </mxCell>
        <mxCell id="iO7sLULOvj2tsXonKfGh-25" value="" style="endArrow=none;html=1;rounded=0;exitX=0.5;exitY=1;exitDx=0;exitDy=0;" edge="1" parent="1">
          <mxGeometry width="50" height="50" relative="1" as="geometry">
            <mxPoint x="807" y="380" as="sourcePoint" />
            <mxPoint x="842" y="410" as="targetPoint" />
          </mxGeometry>
        </mxCell>
        <mxCell id="iO7sLULOvj2tsXonKfGh-26" value="" style="endArrow=none;dashed=1;html=1;rounded=0;" edge="1" parent="1">
          <mxGeometry width="50" height="50" relative="1" as="geometry">
            <mxPoint x="742" y="450" as="sourcePoint" />
            <mxPoint x="772" y="410" as="targetPoint" />
          </mxGeometry>
        </mxCell>
        <mxCell id="iO7sLULOvj2tsXonKfGh-27" value="" style="endArrow=none;dashed=1;html=1;rounded=0;" edge="1" parent="1">
          <mxGeometry width="50" height="50" relative="1" as="geometry">
            <mxPoint x="802" y="450" as="sourcePoint" />
            <mxPoint x="772" y="410" as="targetPoint" />
          </mxGeometry>
        </mxCell>
        <mxCell id="iO7sLULOvj2tsXonKfGh-28" value="" style="endArrow=none;html=1;rounded=0;" edge="1" parent="1">
          <mxGeometry width="50" height="50" relative="1" as="geometry">
            <mxPoint x="870" y="450" as="sourcePoint" />
            <mxPoint x="842" y="410" as="targetPoint" />
          </mxGeometry>
        </mxCell>
        <mxCell id="iO7sLULOvj2tsXonKfGh-29" value="" style="endArrow=none;dashed=1;html=1;rounded=0;" edge="1" parent="1">
          <mxGeometry width="50" height="50" relative="1" as="geometry">
            <mxPoint x="820" y="450" as="sourcePoint" />
            <mxPoint x="840" y="410" as="targetPoint" />
          </mxGeometry>
        </mxCell>
        <mxCell id="iO7sLULOvj2tsXonKfGh-30" value="" style="endArrow=none;html=1;rounded=0;" edge="1" parent="1">
          <mxGeometry width="50" height="50" relative="1" as="geometry">
            <mxPoint x="840" y="490" as="sourcePoint" />
            <mxPoint x="870" y="450" as="targetPoint" />
          </mxGeometry>
        </mxCell>
        <mxCell id="iO7sLULOvj2tsXonKfGh-31" value="" style="endArrow=none;dashed=1;html=1;rounded=0;" edge="1" parent="1">
          <mxGeometry width="50" height="50" relative="1" as="geometry">
            <mxPoint x="900" y="490" as="sourcePoint" />
            <mxPoint x="870" y="450" as="targetPoint" />
          </mxGeometry>
        </mxCell>
        <mxCell id="iO7sLULOvj2tsXonKfGh-32" value="" style="endArrow=none;dashed=1;html=1;rounded=0;" edge="1" parent="1">
          <mxGeometry width="50" height="50" relative="1" as="geometry">
            <mxPoint x="630" y="450" as="sourcePoint" />
            <mxPoint x="650" y="410" as="targetPoint" />
          </mxGeometry>
        </mxCell>
      </root>
    </mxGraphModel>
  </diagram>
</mxfile>
